<svg width="170" height="170" viewBox="0 0 170 170" fill="none" xmlns="http://www.w3.org/2000/svg">
<path d="M130.359 124.641C119.846 136.671 104.984 144.032 89.0438 145.104C73.1032 146.177 57.3895 140.873 45.3594 130.359C33.3294 119.846 25.9684 104.984 24.8959 89.0438C23.8234 73.1032 29.1272 57.3895 39.6406 45.3594L85 85L130.359 124.641Z" fill="#E9E5D9"/>
<circle cx="110.299" cy="61.0884" r="33.938" fill="#FF6A1B"/>
<path d="M114.623 45.0137L111.286 44.1195L108.474 54.6145L105.935 45.1395L102.598 46.0337L105.341 56.2706L98.5086 49.4384L96.0658 51.8813L103.56 59.3755L94.2272 56.8747L93.333 60.2117L103.53 62.944C103.413 62.4405 103.352 61.9158 103.352 61.3767C103.352 57.5607 106.445 54.4673 110.261 54.4673C114.077 54.4673 117.171 57.5607 117.171 61.3767C117.171 61.9123 117.11 62.4338 116.994 62.9344L126.262 65.4175L127.156 62.0806L116.918 59.3374L126.251 56.8365L125.357 53.4995L115.12 56.2426L121.952 49.4104L119.509 46.9675L112.119 54.3577L114.623 45.0137Z" fill="#FFFCF2"/>
<path d="M116.986 62.9735C116.7 64.183 116.096 65.2696 115.267 66.1402L121.981 72.8541L124.423 70.4112L116.986 62.9735Z" fill="#FFFCF2"/>
<path d="M115.199 66.2107C114.36 67.0674 113.3 67.7067 112.112 68.0361L114.555 77.1536L117.892 76.2594L115.199 66.2107Z" fill="#FFFCF2"/>
<path d="M111.987 68.0691C111.436 68.2109 110.857 68.2862 110.262 68.2862C109.624 68.2862 109.006 68.1997 108.419 68.0377L105.974 77.1635L109.311 78.0575L111.987 68.0691Z" fill="#FFFCF2"/>
<path d="M108.3 68.0043C107.13 67.6584 106.088 67.011 105.267 66.1519L98.5364 72.8822L100.979 75.325L108.3 68.0043Z" fill="#FFFCF2"/>
<path d="M105.208 66.0919C104.4 65.2274 103.812 64.1553 103.532 62.9644L94.2345 65.4557L95.1287 68.7926L105.208 66.0919Z" fill="#FFFCF2"/>
</svg>
