<svg width="78" height="23" viewBox="0 0 78 23" fill="none" xmlns="http://www.w3.org/2000/svg">
<path d="M72.7437 20.42C72.7437 19.7587 72.9677 19.1827 73.4157 18.692C73.8637 18.18 74.5037 17.924 75.3357 17.924C76.1677 17.924 76.8077 18.18 77.2557 18.692C77.7037 19.1827 77.9277 19.7587 77.9277 20.42C77.9277 21.0813 77.7037 21.668 77.2557 22.18C76.8077 22.6707 76.1677 22.916 75.3357 22.916C74.5037 22.916 73.8637 22.6707 73.4157 22.18C72.9677 21.668 72.7437 21.0813 72.7437 20.42Z" fill="#161A34"/>
<path d="M59.6168 22.5H55.5208V7.044H59.1688L59.6168 9.06C59.8514 8.804 60.1394 8.53734 60.4808 8.26C60.8434 7.96134 61.2381 7.69467 61.6648 7.46C62.0914 7.22534 62.5608 7.03334 63.0728 6.884C63.6061 6.73467 64.1608 6.66 64.7368 6.66C66.2514 6.66 67.4568 7.19334 68.3528 8.26C69.2701 9.32667 69.7288 10.8307 69.7288 12.772V22.5H65.6328V12.9C65.6328 11.9187 65.4621 11.1827 65.1208 10.692C64.7794 10.18 64.2034 9.924 63.3927 9.924C62.6461 9.924 61.9314 10.1373 61.2488 10.564C60.5874 10.9907 60.0434 11.46 59.6168 11.972V22.5Z" fill="#161A34"/>
<path d="M51.8832 22.5H47.7872V7.04401H51.8832V22.5ZM49.8352 0.548004C50.6246 0.548004 51.2326 0.782671 51.6592 1.252C52.0859 1.70001 52.2992 2.23334 52.2992 2.85201C52.2992 3.47067 52.0859 4.01467 51.6592 4.484C51.2326 4.932 50.6246 5.156 49.8352 5.156C49.0459 5.156 48.4379 4.932 48.0112 4.484C47.5846 4.01467 47.3712 3.47067 47.3712 2.85201C47.3712 2.23334 47.5846 1.70001 48.0112 1.252C48.4379 0.782671 49.0459 0.548004 49.8352 0.548004Z" fill="#161A34"/>
<path d="M36.2613 22.5L30.7573 7.04401H34.9173L37.1573 13.668L38.3413 18.852H38.4053L39.5573 13.668L41.8293 7.04401H45.9893L40.4853 22.5H36.2613Z" fill="#161A34"/>
<path d="M18.9197 14.756C18.9197 16.292 19.2184 17.508 19.8157 18.404C20.4131 19.3 21.3304 19.748 22.5677 19.748C23.8051 19.748 24.7224 19.3 25.3197 18.404C25.9171 17.508 26.2157 16.292 26.2157 14.756C26.2157 13.22 25.9171 12.0147 25.3197 11.14C24.7224 10.244 23.8051 9.796 22.5677 9.796C21.3304 9.796 20.4131 10.244 19.8157 11.14C19.2184 12.0147 18.9197 13.22 18.9197 14.756ZM14.8237 14.756C14.8237 13.6467 14.9837 12.6013 15.3037 11.62C15.6237 10.6173 16.1037 9.75334 16.7437 9.028C17.3837 8.30267 18.1837 7.72667 19.1437 7.3C20.1251 6.87334 21.2664 6.66 22.5677 6.66C23.8691 6.66 24.9997 6.87334 25.9597 7.3C26.9411 7.72667 27.7517 8.30267 28.3917 9.028C29.0317 9.75334 29.5117 10.6173 29.8317 11.62C30.1517 12.6013 30.3117 13.6467 30.3117 14.756C30.3117 15.8867 30.1517 16.9427 29.8317 17.924C29.5117 18.9053 29.0317 19.7693 28.3917 20.516C27.7517 21.2413 26.9411 21.8173 25.9597 22.244C24.9997 22.6707 23.8691 22.884 22.5677 22.884C21.2664 22.884 20.1251 22.6707 19.1437 22.244C18.1837 21.8173 17.3837 21.2413 16.7437 20.516C16.1037 19.7693 15.6237 18.9053 15.3037 17.924C14.9837 16.9427 14.8237 15.8867 14.8237 14.756Z" fill="#161A34"/>
<path d="M0.23999 0.932024L4.39999 0.900024V18.916H13.936V22.5H0.23999V0.932024Z" fill="#161A34"/>
</svg>
